<svg xmlns="http://www.w3.org/2000/svg" xml:space="preserve" id="svg23879" width="1000" height="1056.988" x="0" y="0" version="1.1"><defs id="defs11"><linearGradient id="SVGID_00000049215672759932768630000001529053474238166923_" x1="426.832" x2="426.832" y1="17.725" y2="864.944" gradientTransform="translate(-32.564 -22.107) scale(1.24766)" gradientUnits="userSpaceOnUse"><stop id="stop23410" offset="0" style="stop-color:#86c2eb;stop-opacity:.2"/><stop id="stop23412" offset="1" style="stop-color:#1d72b9;stop-opacity:.2"/></linearGradient></defs><style id="style23345" type="text/css">.st4{fill:#fff}.st10{display:inline}.st11{font-family:&quot;OCRAStd&quot;}.st12{font-size:33px}.st13{letter-spacing:-3}.st15{font-size:50px}.st16{font-size:15px}.st18{font-size:79.8618px}.st20{letter-spacing:2}</style><path id="path23415" d="M165.814 331.605a6.123 6.123 0 0 1-6.114 6.113 6.123 6.123 0 0 1-6.113-6.113 6.123 6.123 0 0 1 6.113-6.114 6.123 6.123 0 0 1 6.114 6.114zm37.18-121.772c-2.495 0-4.616 2.121-4.616 4.616 0 2.496 2.12 4.617 4.616 4.617 2.496 0 4.617-2.121 4.617-4.617 0-2.62-1.997-4.616-4.617-4.616zm94.199-161.946c-1.622 0-2.995 1.372-2.995 2.994s1.373 2.994 2.995 2.994 2.994-1.372 2.994-2.994-1.373-2.994-2.994-2.994zM159.7 54.749a4.473 4.473 0 0 0-4.491 4.491 4.473 4.473 0 0 0 4.491 4.492 4.473 4.473 0 0 0 4.492-4.492 4.473 4.473 0 0 0-4.492-4.491zm58.89 456.519a4.473 4.473 0 0 0-4.492 4.491 4.473 4.473 0 0 0 4.492 4.492 4.473 4.473 0 0 0 4.492-4.492 4.473 4.473 0 0 0-4.492-4.491zM164.192 5.965a4.473 4.473 0 0 0-4.492 4.492 4.473 4.473 0 0 0 4.492 4.492 4.473 4.473 0 0 0 4.492-4.492 4.473 4.473 0 0 0-4.492-4.492zm63.381 348.597a4.473 4.473 0 0 0-4.491 4.491 4.473 4.473 0 0 0 4.491 4.492 4.473 4.473 0 0 0 4.492-4.492 4.473 4.473 0 0 0-4.492-4.491zM4.492 125.242A4.473 4.473 0 0 0 0 129.733a4.473 4.473 0 0 0 4.492 4.492 4.473 4.473 0 0 0 4.491-4.492 4.473 4.473 0 0 0-4.491-4.491zm277.354-85.465c-1.622 0-2.994 1.372-2.994 2.994s1.372 2.995 2.994 2.995 2.995-1.373 2.995-2.995-1.373-2.994-2.995-2.994zm-43.044 21.335c-1.497 0-2.87 1.248-2.87 2.87 0 1.497 1.248 2.87 2.87 2.87 1.497 0 2.87-1.249 2.87-2.87-.125-1.622-1.373-2.87-2.87-2.87zM20.212 273.713c-1.497 0-2.87 1.248-2.87 2.87 0 1.497 1.248 2.87 2.87 2.87 1.497 0 2.87-1.248 2.87-2.87s-1.248-2.87-2.87-2.87zm239.301 89.832c-1.497 0-2.87 1.247-2.87 2.87 0 1.497 1.248 2.869 2.87 2.869 1.497 0 2.87-1.248 2.87-2.87s-1.248-2.87-2.87-2.87zM15.845 24.805a4.473 4.473 0 0 0-4.491 4.492 4.473 4.473 0 0 0 4.491 4.491 4.473 4.473 0 0 0 4.492-4.491 4.473 4.473 0 0 0-4.492-4.492zm31.94 8.983c-1.497 0-2.87 1.248-2.87 2.87s1.248 2.87 2.87 2.87c1.497 0 2.87-1.248 2.87-2.87s-1.248-2.87-2.87-2.87zm93.824 6.238c-1.497 0-2.87 1.248-2.87 2.87 0 1.497 1.248 2.87 2.87 2.87 1.498 0 2.87-1.248 2.87-2.87s-1.248-2.87-2.87-2.87zM16.97 187.5c-1.498 0-2.87 1.248-2.87 2.87 0 1.621 1.247 2.87 2.87 2.87 1.496 0 2.869-1.249 2.869-2.87 0-1.622-1.373-2.87-2.87-2.87zM7.61 171.405c-1.498 0-2.87 1.248-2.87 2.87 0 1.497 1.248 2.87 2.87 2.87 1.497 0 2.87-1.248 2.87-2.87-.125-1.622-1.373-2.87-2.87-2.87zm347.473 72.614c-1.996 2.745-1.248 6.488 1.372 8.484 2.745 1.996 6.488 1.248 8.484-1.372 1.997-2.745 1.248-6.488-1.372-8.485-2.745-1.996-6.613-1.247-8.484 1.373zm127.012-51.528c-2.121 2.994-1.497 7.236 1.622 9.482 2.994 2.12 7.236 1.497 9.482-1.622 2.121-2.995 1.497-7.237-1.622-9.482-3.12-2.121-7.361-1.373-9.482 1.622zm5.864-100.437c-.998 1.372-.624 3.244.748 4.242 1.373.998 3.244.624 4.242-.749.999-1.372.624-3.244-.748-4.242-1.373-.998-3.369-.624-4.242.749zm-66.126-90.83c-.998 1.373-.624 3.244.748 4.242 1.373.998 3.244.624 4.242-.748.999-1.373.624-3.244-.748-4.242-1.373-.874-3.244-.5-4.242.748zm103.68 183.032c-.998 1.372-.624 3.244.749 4.242 1.372.998 3.244.624 4.242-.749.998-1.372.624-3.244-.749-4.242-1.372-.998-3.244-.623-4.242.749zM36.931 1025.678c-1.498 1.996-.998 4.866.998 6.238 1.996 1.373 4.866.998 6.238-.998 1.373-1.996.998-4.866-.998-6.238-1.996-1.373-4.866-1.123-6.238.998zM370.804 56.62c-1.497 1.997-.998 4.866.999 6.239 1.996 1.497 4.865.998 6.238-.998 1.372-1.997.998-4.866-.998-6.239-1.996-1.497-4.866-.998-6.239.998zm252.277 188.771c-1.497 1.997-.998 4.866.998 6.239 1.997 1.497 4.866.998 6.239-.999 1.372-1.996.998-4.865-.998-6.238-1.997-1.497-4.866-1.123-6.239.998zM329.133 315.76c-1.498 1.997-.998 4.866.998 6.239 1.996 1.497 4.866.998 6.238-.999 1.372-1.996.998-4.865-.998-6.238-1.996-1.497-4.741-.998-6.238.998zM406.238 9.084c-.998 1.373-.624 3.244.749 4.243 1.372.998 3.244.623 4.242-.75.998-1.371.623-3.243-.749-4.241-1.372-.873-3.244-.624-4.242.748zm-46.662 196.133c-.874 1.247-.624 2.994.623 3.992 1.248.874 2.995.624 3.993-.624.873-1.247.624-2.994-.624-3.992-1.372-.874-3.12-.624-3.992.624zm101.809 174.672c-.874 1.248-.624 2.994.623 3.993 1.248.998 2.995.623 3.993-.624.873-1.248.624-2.995-.624-3.993-1.248-.998-2.994-.624-3.992.624zm187.523-155.458c-.873 1.247-.624 2.994.624 3.992 1.247.998 2.994.624 3.992-.624.874-1.247.624-2.994-.624-3.992-1.372-.998-3.119-.624-3.992.624zm-496.07 179.663a3.01 3.01 0 0 0 3.618-2.246 3.01 3.01 0 0 0-2.245-3.618 3.01 3.01 0 0 0-3.619 2.245 3.01 3.01 0 0 0 2.246 3.619zm163.943 70.492c1.497.375 2.994-.623 3.368-2.12.375-1.498-.623-2.995-2.12-3.37-1.498-.374-2.995.625-3.37 2.122-.374 1.497.625 2.994 2.122 3.368zm-220.836-26.7c1.497.375 2.994-.623 3.369-2.12.374-1.498-.624-2.995-2.121-3.37-1.498-.373-2.995.625-3.369 2.122-.374 1.497.624 2.994 2.121 3.369zm-11.229-55.645c1.872-1.622 1.996-4.492.374-6.363-1.622-1.872-4.491-1.996-6.363-.374-1.871 1.621-1.996 4.491-.374 6.363 1.747 1.746 4.492 1.996 6.363.374zm29.195 39.301c1.872-1.622 1.997-4.491.375-6.363-1.622-1.871-4.492-1.996-6.363-.374-1.872 1.622-1.997 4.491-.375 6.363 1.622 1.871 4.492 1.996 6.363.374zm529.632 68.996c1.497.374 2.994-.624 3.369-2.121.374-1.497-.624-2.995-2.121-3.369-1.498-.374-2.995.624-3.37 2.121-.373 1.497.625 2.994 2.122 3.369zm17.966-16.345c1.872-1.622 1.997-4.491.375-6.363-1.622-1.871-4.492-1.996-6.364-.374-1.871 1.622-1.996 4.492-.374 6.363 1.622 1.872 4.492 2.121 6.363.374zm-553.462-93.075c1.123-.998 1.248-2.87.25-3.993-.998-1.122-2.87-1.247-3.993-.249-1.123.998-1.247 2.87-.25 3.992 1.124 1.248 2.87 1.248 3.993.25zM469.245 22.684c-.874 1.248-.624 2.994.624 3.993 1.247.873 2.994.623 3.992-.624.874-1.248.624-2.995-.624-3.993-1.247-.998-2.994-.748-3.992.624zm-64.38 307.299c-.873 1.247-.623 2.994.624 3.992 1.248.874 2.995.624 3.993-.624.873-1.247.624-2.994-.624-3.992-1.372-.998-3.119-.624-3.992.624zM386.4 328.36c-.873 1.247-.624 2.994.624 3.992 1.248.874 2.994.624 3.993-.624.998-1.247.623-2.994-.624-3.992-1.373-.998-3.12-.624-3.993.624zM614.223 44.768c-.873 1.247-.624 2.994.624 3.992 1.247.873 2.994.624 3.992-.624.874-1.247.624-2.994-.624-3.992-1.372-.874-3.119-.624-3.992.624zm-18.59-1.622c-.874 1.247-.624 2.994.624 3.992 1.247.873 2.994.624 3.992-.624.998-1.247.624-2.994-.624-3.992-1.247-.874-2.994-.624-3.992.624zM894.447 715.01c3.244.748 6.488-1.248 7.362-4.492.748-3.244-1.248-6.488-4.492-7.361-3.244-.749-6.488 1.247-7.361 4.491-.749 3.244 1.247 6.613 4.491 7.362zm-58.016-53.9c2.87.624 5.74-1.122 6.363-3.867.624-2.87-1.123-5.74-3.867-6.363-2.87-.624-5.74 1.123-6.364 3.868-.748 2.87.999 5.739 3.868 6.363zm-152.963 9.483a3.01 3.01 0 0 0 3.618-2.246 3.01 3.01 0 0 0-2.246-3.618 3.01 3.01 0 0 0-3.618 2.246 3.01 3.01 0 0 0 2.246 3.618zm-225.327 56.145c1.622 0 2.994-1.498 2.994-3.12s-1.497-2.994-3.12-2.994c-1.621 0-2.993 1.497-2.993 3.12 0 1.621 1.497 2.994 3.119 2.994zm310.667-146.6a3.01 3.01 0 0 0 3.618-2.246 3.01 3.01 0 0 0-2.246-3.619 3.01 3.01 0 0 0-3.618 2.246 3.01 3.01 0 0 0 2.246 3.618zm-79.85-2.62c2.37.623 4.866-.874 5.365-3.37.624-2.37-.874-4.865-3.369-5.364-2.37-.624-4.866.873-5.365 3.368-.499 2.371.998 4.866 3.369 5.365zm-536.12 374.048c-2.37-.749-4.866.624-5.614 2.994-.749 2.37.624 4.866 2.994 5.615 2.37.748 4.866-.624 5.615-2.995.748-2.37-.624-4.866-2.995-5.614zm666.25-435.933c2.371.624 4.867-.873 5.366-3.368.623-2.37-.874-4.866-3.369-5.365-2.37-.624-4.866.873-5.365 3.369-.499 2.37.998 4.74 3.369 5.364zm147.1 235.434c2.37.624 4.866-.873 5.365-3.369.624-2.37-.874-4.866-3.369-5.365-2.495-.499-4.866.874-5.365 3.369-.499 2.495.998 4.741 3.369 5.365zM710.293 551.692a3.01 3.01 0 0 0 3.618-2.246 3.01 3.01 0 0 0-2.246-3.618 3.01 3.01 0 0 0-3.618 2.246 3.01 3.01 0 0 0 2.246 3.618zM473.86 734.474c1.622 0 2.995-1.497 2.995-3.12 0-1.621-1.498-2.994-3.12-2.994s-2.994 1.498-2.994 3.12 1.372 2.994 3.12 2.994zm382.907-9.233c1.497.375 2.994-.623 3.369-2.12.374-1.498-.624-2.995-2.121-3.37-1.497-.374-2.995.624-3.369 2.122-.25 1.497.624 3.119 2.121 3.368zm126.138-111.416c1.498.375 2.995-.624 3.37-2.12.373-1.498-.625-2.995-2.122-3.37-1.497-.374-2.994.624-3.369 2.122-.25 1.497.624 2.994 2.121 3.368zm-192.888-114.41c1.497.374 2.995-.624 3.369-2.121.374-1.497-.624-2.995-2.121-3.369-1.497-.374-2.994.624-3.369 2.121-.374 1.497.624 2.995 2.121 3.369zM24.08 907.025c-1.497-.499-3.12.375-3.494 1.872-.499 1.497.375 3.119 1.872 3.493 1.497.5 3.119-.374 3.493-1.871.5-1.497-.374-3.12-1.871-3.494zm97.442 70.618c-1.497-.5-3.12.374-3.493 1.871-.5 1.498.374 3.12 1.871 3.494 1.497.499 3.12-.374 3.493-1.872.375-1.497-.499-2.994-1.871-3.493zm875.733-786.4c1.497 0 2.744-1.373 2.744-2.87s-1.372-2.745-2.87-2.745c-1.496 0-2.744 1.373-2.744 2.87s1.248 2.745 2.87 2.745zm-39.551 493.699c1.497.374 2.994-.624 3.368-2.121.375-1.497-.623-2.994-2.12-3.369-1.498-.374-2.995.624-3.37 2.121-.249 1.497.625 2.995 2.122 3.369zm5.365 17.717c1.497.374 2.994-.624 3.368-2.121.375-1.498-.623-2.995-2.12-3.369-1.498-.374-2.995.624-3.37 2.121-.249 1.497.624 2.994 2.122 3.369zM956.58 26.552c1.871-2.745 1.123-6.613-1.622-8.36-2.745-1.871-6.613-1.122-8.36 1.622-1.87 2.745-1.122 6.613 1.623 8.36 2.744 1.996 6.487 1.247 8.359-1.622zM761.57 196.857c1.997-2.994 1.248-7.236-1.87-9.232-3.12-1.997-7.237-1.248-9.234 1.871-1.996 2.995-1.247 7.237 1.872 9.233 3.12 1.996 7.236 1.123 9.233-1.872zm72.115-6.488c.874-1.372.5-3.243-.873-4.242-1.372-.873-3.244-.499-4.242.874-.873 1.372-.5 3.244.873 4.242 1.373.998 3.369.624 4.242-.874zm137.992 89.208c.873-1.372.499-3.244-.874-4.242-1.372-.873-3.244-.499-4.242.874-.998 1.372-.499 3.243.873 4.242 1.373.873 3.244.499 4.243-.874zM825.95 43.395c.873-1.372.499-3.244-.874-4.242-1.372-.873-3.243-.499-4.242.873-.873 1.373-.499 3.244.874 4.243 1.372.873 3.244.499 4.242-.874zm146.475 96.694c1.373-2.121.873-4.866-1.248-6.239-2.12-1.372-4.865-.873-6.238 1.248-1.372 2.121-.873 4.866 1.248 6.238 2.12 1.373 4.866.75 6.238-1.247zM813.1 70.594c1.372-2.12.873-4.866-1.248-6.238-2.12-1.373-4.866-.874-6.238 1.247-1.372 2.122-.873 4.866 1.248 6.239 2.12 1.372 4.866.748 6.238-1.248zM443.044 648.51c1.372-2.12.873-4.866-1.248-6.238-2.12-1.372-4.866-.873-6.238 1.248-1.372 2.12-.873 4.865 1.248 6.238 2.12 1.372 4.866.749 6.238-1.248zm-103.68-31.44c1.87-1.623 2.12-4.492.374-6.364-1.622-1.871-4.492-2.12-6.363-.374-1.872 1.622-2.121 4.491-.375 6.363 1.622 1.747 4.492 1.996 6.363.374zm294.198 83.468c1.871-1.622 2.12-4.492.374-6.363-1.622-1.872-4.492-2.121-6.363-.375-1.872 1.622-2.121 4.492-.374 6.363 1.746 1.747 4.491 1.997 6.363.375zm162.695-658.89c.873-1.372.499-3.243-.874-4.242-1.372-.873-3.244-.499-4.242.874-.873 1.372-.499 3.244.873 4.242 1.373.873 3.244.499 4.243-.874zm190.767 229.695c.873-1.373.499-3.244-.874-4.242-1.372-.999-3.244-.5-4.242.873-.873 1.372-.499 3.244.874 4.242 1.372.873 3.244.5 4.242-.873zm-48.909-205.74c.874-1.247.5-2.994-.748-3.867-1.248-.874-2.994-.5-3.868.748-.873 1.248-.499 2.995.749 3.868 1.247.873 2.994.5 3.867-.749zm-295.32 250.655c1.122-.998 1.247-2.744.249-3.992-.998-1.123-2.745-1.248-3.993-.25-1.123.998-1.247 2.745-.25 3.993.999 1.123 2.87 1.248 3.993.25zm60.261-298.814c.874-1.248.5-2.995-.748-3.868-1.248-.873-2.995-.499-3.868.749-.873 1.247-.5 2.994.749 3.867 1.247.874 2.994.5 3.867-.748zm291.828 115.783c.873-1.248.5-2.995-.749-3.868-1.247-.873-2.994-.5-3.867.749-.874 1.247-.5 2.994.748 3.867 1.248.874 2.995.5 3.868-.748zM894.198 439.153c-1.497-.749-3.369-.125-4.117 1.372-.749 1.498-.125 3.369 1.372 4.118 1.497.748 3.369.124 4.117-1.373.749-1.497.125-3.368-1.372-4.117zM706.3 351.94c-1.372-.748-3.119-.124-3.743 1.248-.624 1.373-.124 3.12 1.248 3.743 1.372.624 3.12.125 3.743-1.248.749-1.372.25-3.119-1.248-3.743zm253.525 57.892c-1.373-.749-3.12-.125-3.743 1.248-.624 1.372-.125 3.119 1.247 3.743 1.373.748 3.12.124 3.743-1.248.749-1.373.125-2.995-1.247-3.743zm-2.121 56.768c-2.121 1.123-2.995 3.868-1.872 6.114 1.123 2.121 3.868 2.994 6.114 1.871 2.12-1.122 2.994-3.867 1.871-6.113-1.247-2.246-3.992-2.994-6.113-1.872zm-19.09-45.04c-2.12 1.123-2.994 3.868-1.871 6.113 1.123 2.121 3.868 2.995 6.114 1.872 2.245-1.123 2.994-3.868 1.871-6.114-1.248-2.245-3.992-3.119-6.113-1.871zm-3.867 40.674c-1.373.748-1.872 2.495-1.123 3.867.748 1.373 2.495 1.872 3.868 1.123 1.372-.748 1.871-2.495 1.123-3.867-.75-1.373-2.496-1.872-3.868-1.123zm-80.474-123.02c.873-1.247.499-2.994-.749-3.867-1.248-.874-2.994-.5-3.868.748-.873 1.248-.499 2.995.749 3.868 1.248.873 2.994.624 3.868-.749zm-234.061 19.963c1.123-.998 1.247-2.745.25-3.993-.999-1.123-2.746-1.247-3.993-.25-1.123.999-1.248 2.746-.25 3.993.998 1.123 2.745 1.248 3.993.25zm17.592 5.864c1.123-.998 1.247-2.745.25-3.993-.999-1.247-2.746-1.247-3.993-.25-1.123.999-1.248 2.746-.25 3.993.998 1.248 2.745 1.373 3.993.25zm-521.522 357.33c2.745 2.87 7.236 2.994 10.23.374 2.87-2.745 2.995-7.236.375-10.23-2.745-2.87-7.236-2.995-10.23-.375-2.87 2.87-3.12 7.361-.375 10.23zm-98.066-3.494c1.123 1.248 3.119 1.248 4.242.125 1.247-1.123 1.247-3.12.125-4.242-1.123-1.248-3.12-1.248-4.242-.125-1.248.998-1.373 2.995-.125 4.242zm78.977-31.815c1.123 1.248 3.119 1.248 4.242.125 1.123-1.123 1.247-3.12.124-4.242-1.122-1.248-3.119-1.248-4.242-.125-1.122 1.123-1.247 2.994-.124 4.242zm-23.581-18.59c1.747 1.747 4.491 1.871 6.363.25 1.747-1.747 1.871-4.492.25-6.364-1.747-1.746-4.492-1.871-6.364-.25-1.871 1.623-1.996 4.617-.25 6.364zm126.263-15.845c1.747 1.746 4.492 1.871 6.363.25 1.872-1.623 1.872-4.493.25-6.364-1.747-1.747-4.492-1.871-6.363-.25-1.872 1.747-1.872 4.617-.25 6.364zm-94.323 5.864c1.123 1.247 3.12 1.247 4.242.124 1.123-1.123 1.248-3.119.125-4.242-1.123-1.247-3.12-1.247-4.242-.125-1.123 1.123-1.248 3.12-.125 4.243zm78.977-35.31c1.123 1.124 2.87 1.248 3.992.126 1.123-1.123 1.248-2.87.125-3.993-1.123-1.123-2.87-1.248-3.992-.125-1.123.998-1.248 2.87-.125 3.993zm-4.616-142.357c2.495-.375 4.117-2.62 3.867-5.116-.374-2.495-2.62-4.117-5.115-3.867s-4.117 2.62-3.868 5.115c.374 2.495 2.62 4.242 5.115 3.868zm-99.439 40.673c1.497-.25 2.62-1.622 2.37-3.119-.249-1.497-1.621-2.62-3.119-2.37-1.497.25-2.62 1.622-2.37 3.119.125 1.497 1.622 2.62 3.119 2.37zm11.478 14.598c1.498-.25 2.62-1.622 2.371-3.12-.25-1.496-1.622-2.62-3.12-2.37-1.496.25-2.62 1.622-2.37 3.12.25 1.497 1.622 2.62 3.12 2.37zm727.885 183.281c2.496.125 4.617-1.746 4.741-4.242.125-2.495-1.746-4.616-4.242-4.74-2.495-.126-4.616 1.746-4.74 4.241-.125 2.496 1.87 4.617 4.241 4.741zm-31.44-10.73c1.496.125 2.869-1.122 2.994-2.62.124-1.497-1.123-2.87-2.62-2.994-1.498-.125-2.87 1.123-2.995 2.62-.125 1.622.998 2.994 2.62 2.994zm-199.252-54.522c.998-1.248.749-2.995-.5-3.993-1.247-.998-2.993-.748-3.992.5-.998 1.247-.748 2.994.5 3.992 1.247.998 3.119.624 3.992-.5zm195.633 173.55c-1.622-.5-3.244.498-3.743 2.12-.499 1.622.5 3.244 2.121 3.743 1.622.5 3.244-.499 3.743-2.12.374-1.623-.624-3.245-2.12-3.744zM652.9 816.32c-1.497-.375-3.119.499-3.493 1.996-.374 1.497.499 3.119 1.996 3.493 1.497.375 3.12-.499 3.494-1.996.374-1.497-.5-2.994-1.997-3.493zM843.917 787c-1.497-.375-3.119.499-3.493 1.996-.375 1.497.499 3.119 1.996 3.493 1.497.375 3.12-.499 3.493-1.996.375-1.497-.499-2.994-1.996-3.493zm8.235 56.269c-1.997 1.497-2.246 4.367-.749 6.363 1.497 1.996 4.367 2.246 6.363.749 1.996-1.498 2.246-4.367.749-6.363-1.622-1.997-4.492-2.371-6.363-.749zm-26.95-40.923c-1.996 1.497-2.246 4.367-.748 6.363 1.497 1.996 4.366 2.246 6.363.748 1.996-1.497 2.246-4.366.748-6.363-1.622-1.996-4.491-2.245-6.363-.748zm3.494 40.673c-1.248.999-1.373 2.745-.5 3.993.999 1.248 2.745 1.372 3.993.499 1.248-.998 1.373-2.745.5-3.992-.999-1.248-2.746-1.498-3.993-.5zm-288.085-7.36c.998-1.248.749-2.995-.5-3.993-1.247-.998-2.993-.749-3.992.499-.998 1.247-.748 2.994.5 3.992 1.247.998 3.119.749 3.992-.499zm18.465 2.62c.998-1.248.749-2.995-.499-3.993-1.247-.998-2.994-.749-3.992.499-.998 1.248-.749 2.994.499 3.992 1.248.999 2.994.749 3.992-.499zM836.93 995.11c-1.497-.374-3.119.5-3.493 1.996-.374 1.498.499 3.12 1.996 3.494 1.497.374 3.12-.5 3.494-1.996.374-1.498-.5-2.995-1.997-3.494zm-93.824 21.959c.998-1.248.749-2.994-.499-3.993-1.247-.998-2.994-.748-3.992.5-.998 1.247-.749 2.994.499 3.992 1.247.998 2.994.749 3.992-.499zM229.694 807.587c-2.12-1.248-4.866-.5-6.113 1.622-1.248 2.12-.5 4.866 1.622 6.113 2.12 1.248 4.865.5 6.113-1.622 1.248-2.12.624-4.865-1.622-6.113zm23.207 23.955c-1.373-.749-3.12-.374-3.868.998-.749 1.373-.374 3.12.998 3.868 1.372.748 3.12.374 3.868-.998a2.72 2.72 0 0 0-.998-3.868zm-130.38 29.819c1.247 1.123 3.118 1.123 4.241-.125 1.123-1.247 1.123-3.119-.125-4.242-1.247-1.123-3.119-1.123-4.242.125-1.123 1.248-1.123 3.12.125 4.242zm261.633-152.464c1.123 1.123 2.87.998 3.993-.125 1.123-1.123.998-2.87-.125-3.992-1.123-1.123-2.87-.998-3.992.124a2.906 2.906 0 0 0 .124 3.993zm39.052-66.75c1.497-.374 2.496-1.747 2.246-3.369-.374-1.497-1.747-2.495-3.369-2.245-1.497.374-2.495 1.746-2.245 3.368.374 1.622 1.871 2.62 3.368 2.246zm469.245 409.482c-1.372.624-1.996 2.37-1.372 3.743.624 1.373 2.37 1.996 3.743 1.373 1.372-.624 1.996-2.371 1.372-3.743-.624-1.373-2.246-1.997-3.743-1.373zm-15.097-10.73c-1.372.624-1.996 2.37-1.372 3.743.624 1.373 2.37 1.997 3.743 1.373 1.372-.624 1.996-2.37 1.372-3.743-.748-1.373-2.37-1.997-3.743-1.373zM255.146 700.04c-1.622-.5-3.244.374-3.743 1.996-.499 1.622.375 3.244 1.997 3.743 1.622.499 3.244-.374 3.743-1.996.623-1.622-.375-3.244-1.997-3.743zm277.355 80.474c-1.996 1.497-2.246 4.366-.748 6.238 1.497 1.996 4.366 2.246 6.238.749 1.996-1.498 2.246-4.367.749-6.239-1.498-1.871-4.243-2.37-6.239-.748zM448.534 616.57c-1.248.998-1.497 2.745-.5 3.993.999 1.247 2.745 1.497 3.993.499 1.248-.998 1.497-2.745.5-3.993-.999-1.247-2.87-1.372-3.993-.499zM313.662 783.632c-1.248.998-1.498 2.745-.5 3.992.999 1.248 2.745 1.498 3.993.5 1.248-.999 1.497-2.745.5-3.993-.999-1.248-2.746-1.497-3.993-.5zm-17.218-6.862c-1.248.998-1.497 2.745-.5 3.992.999 1.248 2.746 1.497 3.993.5 1.248-.999 1.498-2.746.5-3.993-.999-1.248-2.745-1.497-3.993-.5z" style="fill:url(#SVGID_00000049215672759932768630000001529053474238166923_);stroke-width:1.24766"/></svg>